<svg width="16" height="16" viewBox="0 0 16 16" fill="none" xmlns="http://www.w3.org/2000/svg">
<path d="M7.99991 0.534668C5.63334 0.534668 3.71484 2.45317 3.71484 4.81973C3.71656 5.54629 3.90303 6.26057 4.07672 6.57792L7.99991 15.4654L11.7493 6.89529H11.7474C12.0996 6.26018 12.2846 5.54596 12.2849 4.81973C12.285 2.45317 10.3665 0.534668 7.99991 0.534668ZM7.99991 2.67717C8.28127 2.67717 8.55988 2.73259 8.81982 2.84026C9.07976 2.94794 9.31595 3.10576 9.5149 3.30471C9.71386 3.50367 9.87167 3.73986 9.97934 3.99981C10.087 4.25976 10.1424 4.53837 10.1424 4.81973C10.1424 5.38796 9.91668 5.93291 9.51488 6.33471C9.11309 6.7365 8.56813 6.96223 7.99991 6.96223C7.43168 6.96223 6.88673 6.7365 6.48493 6.33471C6.08313 5.93291 5.85741 5.38796 5.85741 4.81973C5.85741 4.2515 6.08313 3.70655 6.48493 3.30475C6.88673 2.90296 7.43168 2.67723 7.99991 2.67723V2.67717Z" fill="black"/>
</svg>
