<svg width="116" height="96" viewBox="0 0 116 96" fill="none" xmlns="http://www.w3.org/2000/svg">
<g clip-path="url(#clip0_2081_945)">
<path d="M10.2361 61.2312L55.7398 37.6634L54.2662 34.8671L59.929 31.9089L55.5548 23.2685C60.3225 20.8245 66.0332 22.6381 68.4566 27.3659L75.8699 41.7281L70.2264 44.6258L78.8075 47.351L80.2714 50.1775L66.1002 57.6182L64.6363 54.7917L67.3998 46.0897L61.5956 48.9697L60.1317 46.1431L14.628 69.7109L10.2361 61.2312Z" fill="black"/>
</g>
<path d="M70.4819 59.1287L89.0393 55.926V80.4697H70.4819V59.1287Z" fill="black"/>
<rect x="96.4619" y="29.437" width="18.5573" height="51.0328" fill="black"/>
<path d="M81.965 39.1073L88.0339 37.2665L86.3523 44.3805L81.965 39.1073Z" fill="black"/>
<path d="M67.8885 62.7289L65.1479 67.0374L63.3519 62.0863L67.8885 62.7289Z" fill="black"/>
<path d="M88.6934 49.4012L88.1587 44.0536L92.356 46.1817L88.6934 49.4012Z" fill="black"/>
<defs>
<clipPath id="clip0_2081_945">
<rect width="76.0851" height="76.0852" fill="white" transform="translate(23.0298) rotate(17.619)"/>
</clipPath>
</defs>
</svg>
