<svg width="26" height="26" viewBox="0 0 26 26" fill="none" xmlns="http://www.w3.org/2000/svg">
<path d="M20.6376 5.31906C19.6443 4.31601 18.4612 3.52069 17.1574 2.97945C15.8536 2.43822 14.4551 2.16189 13.0434 2.16656C7.12845 2.16656 2.30761 6.9874 2.30761 12.9024C2.30761 14.7982 2.80595 16.6399 3.73761 18.2649L2.22095 23.8332L7.90845 22.3382C9.47928 23.1941 11.2451 23.6491 13.0434 23.6491C18.9584 23.6491 23.7793 18.8282 23.7793 12.9132C23.7793 10.0424 22.6634 7.3449 20.6376 5.31906ZM13.0434 21.8291C11.4401 21.8291 9.86928 21.3957 8.49345 20.5832L8.16845 20.3882L4.78845 21.2766L5.68761 17.9832L5.47095 17.6474C4.57996 16.225 4.10695 14.5808 4.10595 12.9024C4.10595 7.98406 8.11428 3.97573 13.0326 3.97573C15.4159 3.97573 17.6584 4.9074 19.3376 6.5974C20.1692 7.42491 20.8282 8.40932 21.2764 9.4935C21.7246 10.5777 21.953 11.7401 21.9484 12.9132C21.9701 17.8316 17.9618 21.8291 13.0434 21.8291ZM17.9401 15.1557C17.6693 15.0257 16.3476 14.3757 16.1093 14.2782C15.8601 14.1916 15.6868 14.1482 15.5026 14.4082C15.3184 14.6791 14.8093 15.2857 14.6576 15.4591C14.5059 15.6432 14.3434 15.6649 14.0726 15.5241C13.8018 15.3941 12.9351 15.1016 11.9168 14.1916C11.1151 13.4766 10.5843 12.5991 10.4218 12.3282C10.2701 12.0574 10.4001 11.9166 10.5409 11.7757C10.6601 11.6566 10.8118 11.4616 10.9418 11.3099C11.0718 11.1582 11.1259 11.0391 11.2126 10.8657C11.2993 10.6816 11.2559 10.5299 11.1909 10.3999C11.1259 10.2699 10.5843 8.94823 10.3676 8.40656C10.1509 7.88656 9.92345 7.95156 9.76095 7.94073H9.24095C9.05678 7.94073 8.77511 8.00573 8.52595 8.27656C8.28761 8.5474 7.59428 9.1974 7.59428 10.5191C7.59428 11.8407 8.55845 13.1191 8.68845 13.2924C8.81845 13.4766 10.5843 16.1849 13.2709 17.3441C13.9101 17.6257 14.4084 17.7882 14.7984 17.9074C15.4376 18.1132 16.0226 18.0807 16.4884 18.0157C17.0084 17.9399 18.0809 17.3657 18.2976 16.7374C18.5251 16.1091 18.5251 15.5782 18.4493 15.4591C18.3734 15.3399 18.2109 15.2857 17.9401 15.1557Z" fill="black"/>
</svg>
