<svg width="25" height="25" viewBox="0 0 25 25" fill="none" xmlns="http://www.w3.org/2000/svg">
<path d="M12.4997 11.9791C11.809 11.9791 11.1466 11.7047 10.6583 11.2163C10.1699 10.728 9.89551 10.0656 9.89551 9.37492C9.89551 8.68425 10.1699 8.02187 10.6583 7.53349C11.1466 7.04512 11.809 6.77075 12.4997 6.77075C13.1903 6.77075 13.8527 7.04512 14.3411 7.53349C14.8295 8.02187 15.1038 8.68425 15.1038 9.37492C15.1038 9.7169 15.0365 10.0555 14.9056 10.3715C14.7747 10.6874 14.5829 10.9745 14.3411 11.2163C14.0993 11.4582 13.8122 11.65 13.4962 11.7809C13.1803 11.9117 12.8417 11.9791 12.4997 11.9791ZM12.4997 2.08325C10.5658 2.08325 8.71114 2.85148 7.34369 4.21893C5.97623 5.58638 5.20801 7.44105 5.20801 9.37492C5.20801 14.8437 12.4997 22.9166 12.4997 22.9166C12.4997 22.9166 19.7913 14.8437 19.7913 9.37492C19.7913 7.44105 19.0231 5.58638 17.6557 4.21893C16.2882 2.85148 14.4335 2.08325 12.4997 2.08325Z" fill="black"/>
</svg>
