<svg width="160" height="46" viewBox="0 0 160 46" fill="none" xmlns="http://www.w3.org/2000/svg">
<path d="M42.1225 22.5824C42.1225 10.1075 32.6959 0 21.0613 0C9.42661 0 0 10.1075 0 22.5824C0 33.8536 7.70179 43.1962 17.7704 44.8917V29.1104H12.4202V22.5824H17.7704V17.607C17.7704 11.9477 20.9126 8.82172 25.7253 8.82172C28.0302 8.82172 30.4403 9.26244 30.4403 9.26244V14.817H27.7839C25.1682 14.817 24.3521 16.558 24.3521 18.3437V22.5824H30.1932L29.259 29.1104H24.3521V44.8917C34.4207 43.1962 42.1225 33.8536 42.1225 22.5824Z" fill="#080808"/>
<path d="M93.0645 7.79288C89.5062 3.96843 84.7674 1.86499 79.7314 1.86499C69.3366 1.86499 60.8782 10.9344 60.8782 22.0799C60.8782 25.6403 61.7444 29.1187 63.3919 32.1874L60.7168 42.6591L70.7124 39.8454C73.464 41.4571 76.5637 42.3039 79.7229 42.3039H79.7314C90.1176 42.3039 98.7629 33.2345 98.7629 22.089C98.7629 16.6893 96.6228 11.6173 93.0645 7.79288ZM79.7314 38.8984C76.9119 38.8984 74.1518 38.0879 71.7485 36.5582L71.1795 36.1939L65.2518 37.8603L66.8314 31.6592L66.4577 31.0218C64.8866 28.3447 64.0628 25.2578 64.0628 22.0799C64.0628 12.8193 71.0946 5.27967 79.7399 5.27967C83.9266 5.27967 87.8586 7.02799 90.814 10.2059C93.7694 13.3839 95.5868 17.5998 95.5783 22.089C95.5783 31.3587 88.3682 38.8984 79.7314 38.8984ZM88.3257 26.3141C87.8586 26.0592 85.5402 24.839 85.1071 24.6751C84.674 24.5021 84.3598 24.4201 84.0455 24.93C83.7313 25.44 82.8311 26.5691 82.5509 26.9151C82.2791 27.252 81.9989 27.2975 81.5318 27.0426C78.7632 25.5583 76.9459 24.3928 75.12 21.0327C74.6359 20.1404 75.604 20.2041 76.5042 18.2737C76.6571 17.9368 76.5807 17.6454 76.4618 17.3904C76.3429 17.1354 75.4002 14.6496 75.0096 13.6388C74.6274 12.6554 74.2368 12.792 73.948 12.7738C73.6763 12.7555 73.362 12.7556 73.0478 12.7556C72.7336 12.7556 72.2241 12.883 71.7909 13.3839C71.3578 13.8938 70.1434 15.114 70.1434 17.5998C70.1434 20.0857 71.8334 22.4897 72.0627 22.8266C72.3005 23.1635 75.3832 28.2628 80.1135 30.4573C83.1029 31.8413 84.2748 31.9597 85.7695 31.723C86.6782 31.5773 88.555 30.5028 88.9457 29.319C89.3363 28.1353 89.3363 27.1245 89.2174 26.9151C89.107 26.6875 88.7928 26.56 88.3257 26.3141Z" fill="#080808"/>
<path d="M138.42 0C126.785 0 117.358 10.1075 117.358 22.5824C117.358 35.0574 126.785 45.1649 138.42 45.1649C150.054 45.1649 159.481 35.0574 159.481 22.5824C159.481 10.1075 150.054 0 138.42 0ZM148.763 15.4708L145.307 32.9357C145.052 34.1741 144.364 34.4746 143.405 33.8919L138.139 29.7305L135.6 32.353C135.32 32.6535 135.082 32.9084 134.539 32.9084L134.912 27.1627L144.67 17.7108C145.095 17.3102 144.577 17.0825 144.016 17.4832L131.957 25.6238L126.76 23.8846C125.63 23.5021 125.605 22.6735 126.997 22.0907L147.303 13.6952C148.245 13.3309 149.069 13.941 148.763 15.4708Z" fill="#080808"/>
</svg>
