<svg width="43" height="46" viewBox="0 0 43 46" fill="none" xmlns="http://www.w3.org/2000/svg">
<path d="M21.0613 0C9.42661 0 0 10.1075 0 22.5824C0 35.0574 9.42661 45.1649 21.0613 45.1649C32.6959 45.1649 42.1225 35.0574 42.1225 22.5824C42.1225 10.1075 32.6959 0 21.0613 0ZM31.405 15.4708L27.9486 32.9357C27.6938 34.1741 27.006 34.4746 26.0463 33.8919L20.781 29.7305L18.2418 32.353C17.9615 32.6535 17.7237 32.9084 17.1802 32.9084L17.5539 27.1627L27.3117 17.7108C27.7363 17.3102 27.2183 17.0825 26.6578 17.4832L14.5985 25.6238L9.40113 23.8846C8.27164 23.5021 8.24616 22.6735 9.63892 22.0907L29.9443 13.6952C30.887 13.3309 31.7108 13.941 31.405 15.4708Z" fill="#080808"/>
</svg>
