<svg width="39" height="41" viewBox="0 0 39 41" fill="none" xmlns="http://www.w3.org/2000/svg">
<path d="M32.3477 5.92789C28.7894 2.10344 24.0506 0 19.0146 0C8.61983 0 0.161356 9.0694 0.161356 20.2149C0.161356 23.7753 1.02759 27.2537 2.67512 30.3224L0 40.7941L9.9956 37.9804C12.7472 39.5921 15.8469 40.4389 19.0061 40.4389H19.0146C29.4008 40.4389 38.0461 31.3695 38.0461 20.224C38.0461 14.8243 35.906 9.75233 32.3477 5.92789ZM19.0146 37.0334C16.1951 37.0334 13.435 36.2229 11.0317 34.6932L10.4627 34.3289L4.53496 35.9953L6.11456 29.7942L5.74089 29.1568C4.16979 26.4797 3.34602 23.3928 3.34602 20.2149C3.34602 10.9543 10.3778 3.41468 19.0231 3.41468C23.2098 3.41468 27.1418 5.163 30.0972 8.34093C33.0526 11.5189 34.87 15.7349 34.8615 20.224C34.8615 29.4937 27.6514 37.0334 19.0146 37.0334ZM27.6089 24.4491C27.1418 24.1942 24.8234 22.974 24.3903 22.8101C23.9572 22.6371 23.643 22.5551 23.3287 23.065C23.0145 23.575 22.1143 24.7041 21.8341 25.0501C21.5623 25.387 21.2821 25.4326 20.815 25.1776C18.0464 23.6933 16.2291 22.5278 14.4032 19.1677C13.9191 18.2754 14.8872 18.3391 15.7874 16.4087C15.9403 16.0718 15.8639 15.7804 15.745 15.5254C15.6261 15.2705 14.6834 12.7846 14.2928 11.7738C13.9106 10.7904 13.52 10.927 13.2312 10.9088C12.9595 10.8906 12.6452 10.8906 12.331 10.8906C12.0168 10.8906 11.5073 11.018 11.0741 11.5189C10.641 12.0288 9.42661 13.249 9.42661 15.7349C9.42661 18.2207 11.1166 20.6247 11.3459 20.9616C11.5837 21.2985 14.6664 26.3978 19.3967 28.5923C22.3861 29.9764 23.558 30.0947 25.0527 29.858C25.9614 29.7123 27.8382 28.6378 28.2289 27.454C28.6195 26.2703 28.6195 25.2595 28.5006 25.0501C28.3902 24.8225 28.076 24.695 27.6089 24.4491Z" fill="#080808"/>
</svg>
