<svg width="71" height="71" viewBox="0 0 71 71" fill="none" xmlns="http://www.w3.org/2000/svg">
<circle cx="34.4127" cy="35.7689" r="34.2476" fill="#FFEB11"/>
<path d="M25.845 49.2983L22.7261 46.5122L39.4425 27.7989L36.3236 25.0129L39.1097 21.894L42.2286 24.6801L45.0147 21.5612L48.1335 24.3472L45.3475 27.4661L48.4664 30.2522L45.6803 33.3711L42.5614 30.585L25.845 49.2983ZM46.0131 39.276L48.7992 36.1571L45.6803 33.3711L42.8942 36.49L46.0131 39.276ZM46.0131 39.276L43.227 42.3949L46.3459 45.181L49.132 42.0621L46.0131 39.276ZM30.4187 25.3457L33.2048 22.2268L36.3236 25.0129L33.5376 28.1318L30.4187 25.3457ZM30.4187 25.3457L27.6326 28.4646L24.5137 25.6785L27.2998 22.5596L30.4187 25.3457Z" fill="#1B1B1B"/>
</svg>
