<svg width="40" height="40" viewBox="0 0 40 40" fill="none" xmlns="http://www.w3.org/2000/svg">
<path d="M20.0003 21.6666V6.66663M11.667 23.3333H8.33366C7.89163 23.3333 7.46771 23.5089 7.15515 23.8214C6.84259 24.134 6.66699 24.5579 6.66699 25V31.6666C6.66699 32.1087 6.84259 32.5326 7.15515 32.8451C7.46771 33.1577 7.89163 33.3333 8.33366 33.3333H31.667C32.109 33.3333 32.5329 33.1577 32.8455 32.8451C33.1581 32.5326 33.3337 32.1087 33.3337 31.6666V25C33.3337 24.5579 33.1581 24.134 32.8455 23.8214C32.5329 23.5089 32.109 23.3333 31.667 23.3333H28.3337M26.667 15L20.0003 23.3333L13.3337 15M28.3337 28.3333H28.3503" stroke="black" stroke-width="3" stroke-linecap="round" stroke-linejoin="round"/>
</svg>
