<svg width="21" height="21" viewBox="0 0 21 21" fill="none" xmlns="http://www.w3.org/2000/svg">
<path d="M1.96875 10.5C1.96875 15.2119 5.78812 19.0312 10.5 19.0312C15.2119 19.0312 19.0312 15.2119 19.0312 10.5C19.0312 5.78812 15.2119 1.96875 10.5 1.96875C5.78812 1.96875 1.96875 5.78812 1.96875 10.5ZM10.5 6.78125C10.674 6.78125 10.841 6.85039 10.964 6.97346C11.0871 7.09653 11.1562 7.26345 11.1562 7.4375V9.35725L12.7942 8.40175C12.9446 8.31403 13.1237 8.28964 13.2921 8.33394C13.4604 8.37825 13.6043 8.48762 13.692 8.638C13.7797 8.78838 13.8041 8.96744 13.7598 9.1358C13.7155 9.30416 13.6061 9.44803 13.4558 9.53575L11.802 10.5L13.4558 11.4643C13.5302 11.5077 13.5954 11.5654 13.6476 11.634C13.6997 11.7026 13.7379 11.7808 13.7598 11.8642C13.7817 11.9476 13.787 12.0344 13.7754 12.1198C13.7638 12.2053 13.7354 12.2875 13.692 12.362C13.6486 12.4365 13.5909 12.5016 13.5223 12.5538C13.4536 12.606 13.3754 12.6441 13.2921 12.6661C13.2087 12.688 13.1218 12.6933 13.0364 12.6817C12.951 12.67 12.8687 12.6417 12.7942 12.5982L11.1562 11.6427V13.5625C11.1562 13.7365 11.0871 13.9035 10.964 14.0265C10.841 14.1496 10.674 14.2188 10.5 14.2188C10.326 14.2188 10.159 14.1496 10.036 14.0265C9.91289 13.9035 9.84375 13.7365 9.84375 13.5625V11.6427L8.20575 12.5982C8.13129 12.6417 8.04901 12.67 7.96359 12.6817C7.87818 12.6933 7.79131 12.688 7.70795 12.6661C7.62458 12.6441 7.54636 12.606 7.47773 12.5538C7.40911 12.5016 7.35143 12.4365 7.308 12.362C7.26457 12.2875 7.23622 12.2053 7.22459 12.1198C7.21295 12.0344 7.21826 11.9476 7.24019 11.8642C7.26213 11.7808 7.30028 11.7026 7.35245 11.634C7.40462 11.5654 7.46979 11.5077 7.54425 11.4643L9.198 10.5L7.54425 9.53575C7.46979 9.49232 7.40462 9.43464 7.35245 9.36602C7.30028 9.29739 7.26213 9.21917 7.24019 9.1358C7.21826 9.05244 7.21295 8.96557 7.22459 8.88016C7.23622 8.79474 7.26457 8.71246 7.308 8.638C7.35143 8.56354 7.40911 8.49837 7.47773 8.4462C7.54636 8.39403 7.62458 8.35588 7.70795 8.33394C7.79131 8.31201 7.87818 8.3067 7.96359 8.31834C8.04901 8.32997 8.13129 8.35832 8.20575 8.40175L9.84375 9.35725V7.4375C9.84375 7.26345 9.91289 7.09653 10.036 6.97346C10.159 6.85039 10.326 6.78125 10.5 6.78125Z" fill="black"/>
</svg>
