<svg width="28" height="28" viewBox="0 0 28 28" fill="none" xmlns="http://www.w3.org/2000/svg">
<path fill-rule="evenodd" clip-rule="evenodd" d="M4.41925 20.1729C4.24581 20.5019 4.09803 20.778 3.97592 21.0012H3.49992C3.1905 21.0012 2.89375 21.1241 2.67496 21.3429C2.45617 21.5617 2.33325 21.8585 2.33325 22.1679C2.33325 22.4773 2.45617 22.774 2.67496 22.9928C2.89375 23.2116 3.1905 23.3345 3.49992 23.3345H24.4999C24.8093 23.3345 25.1061 23.2116 25.3249 22.9928C25.5437 22.774 25.6666 22.4773 25.6666 22.1679C25.6666 21.8585 25.5437 21.5617 25.3249 21.3429C25.1061 21.1241 24.8093 21.0012 24.4999 21.0012H24.0228C23.9022 20.778 23.7544 20.5019 23.5794 20.1729C22.9401 18.9641 22.3232 17.7435 21.7291 16.5119C20.2883 13.5252 18.6328 9.73355 17.6901 6.39571C17.5521 5.89996 17.256 5.46282 16.8469 5.15074C16.4377 4.83866 15.9378 4.66871 15.4233 4.66671C15.2436 4.66671 15.0616 4.65738 14.8854 4.70171L13.9999 4.92338L13.1156 4.70171C12.9406 4.65738 12.7574 4.66671 12.5778 4.66671C11.5021 4.66671 10.5921 5.39471 10.3098 6.39571C9.36709 9.73471 7.71042 13.5252 6.27075 16.5107C5.67625 17.7431 5.05898 18.9633 4.41925 20.1729ZM12.5556 7.03038C12.2743 8.01746 11.958 8.99419 11.6071 9.95871L12.5136 10.8652L12.9569 9.97971C13.0396 9.81447 13.1604 9.67123 13.3092 9.56179C13.4581 9.45235 13.6309 9.37983 13.8132 9.35021C13.9956 9.3206 14.1824 9.33472 14.3583 9.39143C14.5342 9.44813 14.694 9.5458 14.8248 9.67638L16.0136 10.8652L16.4243 10.0439C16.0618 9.05138 15.7349 8.04624 15.4443 7.03038C15.443 7.02416 15.4405 7.01826 15.4369 7.01305C15.4333 7.00783 15.4286 7.00341 15.4233 7.00005H15.3101L14.2834 7.25671C14.0973 7.30334 13.9025 7.30334 13.7164 7.25671L12.6898 7.00005H12.5778C12.5721 7.00304 12.5671 7.00717 12.563 7.01219C12.559 7.01721 12.5561 7.02301 12.5544 7.02921M17.5688 12.9687L17.3751 13.3549C17.2924 13.5201 17.1716 13.6634 17.0228 13.7728C16.8739 13.8822 16.7012 13.9548 16.5188 13.9844C16.3364 14.014 16.1496 13.9999 15.9737 13.9432C15.7979 13.8865 15.638 13.7888 15.5073 13.6582L14.3184 12.4694L13.8751 13.356C13.7924 13.5213 13.6716 13.6645 13.5228 13.774C13.3739 13.8834 13.2012 13.9559 13.0188 13.9855C12.8364 14.0152 12.6496 14.001 12.4737 13.9443C12.2979 13.8876 12.138 13.79 12.0073 13.6594L10.6889 12.3399C9.97005 14.0919 9.19735 15.8213 8.37192 17.5257C7.80854 18.6938 7.22512 19.852 6.62192 21H21.3779C20.7747 19.8517 20.1913 18.693 19.6279 17.5245C18.9019 16.0243 18.2156 14.5052 17.5699 12.9687" fill="black"/>
</svg>
