<svg width="26" height="26" viewBox="0 0 26 26" fill="none" xmlns="http://www.w3.org/2000/svg">
<path d="M25.1875 6.5C25.1875 6.175 25.025 5.93125 24.7812 5.76875L19.0938 2.51875C18.9312 2.4375 18.85 2.4375 18.6875 2.4375C18.525 2.4375 18.4438 2.4375 18.2812 2.51875L13 5.525L7.71875 2.51875C7.55625 2.4375 7.475 2.4375 7.3125 2.4375C7.15 2.4375 7.06875 2.4375 6.90625 2.51875L1.21875 5.76875C0.975 5.93125 0.8125 6.175 0.8125 6.5V22.75C0.8125 23.2375 1.1375 23.5625 1.625 23.5625C1.7875 23.5625 1.86875 23.4812 2.03125 23.4812L7.3125 20.475L12.5938 23.4812C12.7563 23.5625 12.8375 23.5625 13 23.5625C13.1625 23.5625 13.2437 23.5625 13.4062 23.4812L18.6875 20.475L23.9688 23.4812C24.05 23.5625 24.2125 23.5625 24.375 23.5625C24.8625 23.5625 25.1875 23.2375 25.1875 22.75V6.5ZM2.4375 6.9875L6.5 4.63125V19.0125L2.4375 21.3687V6.9875ZM12.1875 21.3687L8.125 19.0125V4.63125L12.1875 6.9875V21.3687ZM17.875 19.0125L13.8125 21.3687V6.9875L17.875 4.63125V19.0125ZM19.5 19.0125V4.63125L23.5625 6.9875V21.3687L19.5 19.0125Z" fill="black"/>
</svg>
