<svg width="35" height="35" viewBox="0 0 35 35" fill="none" xmlns="http://www.w3.org/2000/svg">
<path d="M29.1667 8.75V7.29167C29.1667 6.90489 29.0131 6.53396 28.7396 6.26047C28.4661 5.98698 28.0952 5.83333 27.7084 5.83333H13.1251V4.375H8.75008V5.83333H7.29175V8.75H8.75008V21.875H7.29175V18.9583H4.37508V21.875H2.91675V24.7917H4.37508V30.625H7.29175V24.7917H14.5834V30.625H17.5001V24.7917H18.9584V21.875H17.5001V18.9583H14.5834V21.875H13.1251V8.75H24.7917V15.4875C24.1063 15.7354 23.6105 16.3771 23.6105 17.15C23.6105 17.7917 23.9605 18.375 24.5001 18.6958V20.4167H25.4042C25.9001 20.4167 26.2938 20.825 26.2938 21.3208C26.2938 21.8167 25.9001 22.225 25.4042 22.225C25.0834 22.225 24.7917 22.05 24.6313 21.7729C24.5098 21.5697 24.3134 21.4222 24.0844 21.3622C23.8553 21.3022 23.6119 21.3345 23.4063 21.4521C22.9688 21.6854 22.823 22.2396 23.0709 22.6771C23.5522 23.4938 24.4417 24.0187 25.4042 24.0187C26.8772 24.0187 28.0876 22.8083 28.0876 21.3208C28.0876 20.1833 27.3584 19.1625 26.2938 18.7833V18.6958C26.848 18.375 27.198 17.7917 27.198 17.15C27.198 16.4792 26.8042 15.9104 26.2501 15.6042V8.75H29.1667ZM11.6667 19.9208L10.2084 21.3792V19.3083L11.6667 17.85V19.9208ZM11.6667 15.6188L10.2084 17.0771V15.0063L11.6667 13.5479V15.6188ZM10.2084 12.7021V10.6312L11.6667 9.17292V11.2438L10.2084 12.7021Z" fill="black"/>
</svg>
